M48
;Layer_Color=9474304
;FILE_FORMAT=2:5
INCH,LZ
;TYPE=PLATED
T1F00S00C0.02559
T2F00S00C0.03150
T3F00S00C0.03346
T4F00S00C0.03543
T5F00S00C0.03937
T6F00S00C0.04685
T7F00S00C0.05118
T8F00S00C0.07874
%
T01
X0127661Y0174354
X0137504
X026063Y0227559
Y0237402
T02
X0238504Y0106669
Y0126354
X0048504Y0170512
Y0180354
X0219583Y0180854
X0229425
T03
X0280315Y0127165
Y0162598
X0184504Y0136571
Y0101138
X0134004Y0103138
Y0138571
X0109721Y0176854
X0233071Y0075984
Y0040551
X0074287Y0176854
X0087004Y0215638
X0115504
X0145004
X0172504Y0216138
Y0251571
X0145004Y0251071
X0115504
X0087004
T04
X0179004Y0168618
Y0178854
Y0189091
T05
X0093201Y0062854
X0207807
X0200807Y0301354
X0086201
T06
X0083004Y0130354
X0093004
X0050504Y0229354
Y0239354
X0213386Y0237559
Y0227559
T07
X0275955Y0050197
Y0060236
Y0070276
X0060396Y0070394
Y0060354
Y0050315
X0056504Y0288854
Y0298894
Y0308933
X0241504Y0306433
Y0296394
Y0286354
T08
X0019488Y0017913
X0304921
Y0341732
X0019488Y0342717
M30
