G04*
G04 #@! TF.GenerationSoftware,Altium Limited,Altium Designer,22.9.1 (49)*
G04*
G04 Layer_Color=2752767*
%FSLAX25Y25*%
%MOIN*%
G70*
G04*
G04 #@! TF.SameCoordinates,E0007E1A-B842-4F06-B59B-3BF212909B56*
G04*
G04*
G04 #@! TF.FilePolarity,Positive*
G04*
G01*
G75*
%ADD50C,0.00200*%
%ADD51C,0.00267*%
D50*
X279515Y161798D02*
Y163398D01*
X281115D01*
Y161798D01*
X279515D01*
Y126365D02*
Y127965D01*
X281115D01*
Y126365D01*
X279515D01*
X259830Y226759D02*
X260230Y227559D01*
X259830Y228359D01*
X260630Y227959D01*
X261430Y228359D01*
X261030Y227559D01*
X261430Y226759D01*
X260630Y227159D01*
X259830Y226759D01*
Y236602D02*
X260230Y237402D01*
X259830Y238202D01*
X260630Y237802D01*
X261430Y238202D01*
X261030Y237402D01*
X261430Y236602D01*
X260630Y237002D01*
X259830Y236602D01*
X93201Y62054D02*
X92401Y63654D01*
X94001D01*
X93201Y62054D01*
X207807D02*
X207007Y63654D01*
X208607D01*
X207807Y62054D01*
X86201Y300554D02*
X85401Y302154D01*
X87001D01*
X86201Y300554D01*
X200807D02*
X200007Y302154D01*
X201607D01*
X200807Y300554D01*
X171704Y215338D02*
Y216938D01*
X173304D01*
Y215338D01*
X171704D01*
Y250771D02*
Y252371D01*
X173304D01*
Y250771D01*
X171704D01*
X108921Y176054D02*
Y177654D01*
X110521D01*
Y176054D01*
X108921D01*
X73487D02*
Y177654D01*
X75087D01*
Y176054D01*
X73487D01*
X48504Y169712D02*
X48904Y170112D01*
X49304D01*
X48904Y170512D01*
X49304Y170912D01*
X48904D01*
X48504Y171312D01*
X48104Y170912D01*
X47704D01*
X48104Y170512D01*
X47704Y170112D01*
X48104D01*
X48504Y169712D01*
Y179554D02*
X48904Y179954D01*
X49304D01*
X48904Y180354D01*
X49304Y180754D01*
X48904D01*
X48504Y181154D01*
X48104Y180754D01*
X47704D01*
X48104Y180354D01*
X47704Y179954D01*
X48104D01*
X48504Y179554D01*
X238504Y125554D02*
X238904Y125954D01*
X239304D01*
X238904Y126354D01*
X239304Y126754D01*
X238904D01*
X238504Y127154D01*
X238104Y126754D01*
X237704D01*
X238104Y126354D01*
X237704Y125954D01*
X238104D01*
X238504Y125554D01*
Y105869D02*
X238904Y106269D01*
X239304D01*
X238904Y106669D01*
X239304Y107069D01*
X238904D01*
X238504Y107469D01*
X238104Y107069D01*
X237704D01*
X238104Y106669D01*
X237704Y106269D01*
X238104D01*
X238504Y105869D01*
X229425Y180054D02*
X229825Y180454D01*
X230225D01*
X229825Y180854D01*
X230225Y181254D01*
X229825D01*
X229425Y181654D01*
X229025Y181254D01*
X228625D01*
X229025Y180854D01*
X228625Y180454D01*
X229025D01*
X229425Y180054D01*
X219583D02*
X219983Y180454D01*
X220383D01*
X219983Y180854D01*
X220383Y181254D01*
X219983D01*
X219583Y181654D01*
X219183Y181254D01*
X218783D01*
X219183Y180854D01*
X218783Y180454D01*
X219183D01*
X219583Y180054D01*
X82604Y129954D02*
Y129554D01*
X83404D01*
Y129954D01*
X83804D01*
Y130754D01*
X83404D01*
Y131154D01*
X82604D01*
Y130754D01*
X82204D01*
Y129954D01*
X82604D01*
X92604D02*
Y129554D01*
X93404D01*
Y129954D01*
X93804D01*
Y130754D01*
X93404D01*
Y131154D01*
X92604D01*
Y130754D01*
X92204D01*
Y129954D01*
X92604D01*
X133204Y102338D02*
Y103938D01*
X134804D01*
Y102338D01*
X133204D01*
Y137771D02*
Y139371D01*
X134804D01*
Y137771D01*
X133204D01*
X183704Y100338D02*
Y101938D01*
X185304D01*
Y100338D01*
X183704D01*
Y135771D02*
Y137371D01*
X185304D01*
Y135771D01*
X183704D01*
X232271Y75184D02*
Y76784D01*
X233871D01*
Y75184D01*
X232271D01*
Y39751D02*
Y41351D01*
X233871D01*
Y39751D01*
X232271D01*
X178204Y188291D02*
X178604D01*
X179004Y188691D01*
X179404Y188291D01*
X179804D01*
Y188691D01*
X179404Y189091D01*
X179804Y189491D01*
Y189891D01*
X179404D01*
X179004Y189491D01*
X178604Y189891D01*
X178204D01*
Y189491D01*
X178604Y189091D01*
X178204Y188691D01*
Y188291D01*
Y167818D02*
X178604D01*
X179004Y168218D01*
X179404Y167818D01*
X179804D01*
Y168218D01*
X179404Y168618D01*
X179804Y169018D01*
Y169418D01*
X179404D01*
X179004Y169018D01*
X178604Y169418D01*
X178204D01*
Y169018D01*
X178604Y168618D01*
X178204Y168218D01*
Y167818D01*
Y178054D02*
X178604D01*
X179004Y178454D01*
X179404Y178054D01*
X179804D01*
Y178454D01*
X179404Y178854D01*
X179804Y179254D01*
Y179654D01*
X179404D01*
X179004Y179254D01*
X178604Y179654D01*
X178204D01*
Y179254D01*
X178604Y178854D01*
X178204Y178454D01*
Y178054D01*
X136704Y173554D02*
X137104Y174354D01*
X136704Y175154D01*
X137504Y174754D01*
X138304Y175154D01*
X137904Y174354D01*
X138304Y173554D01*
X137504Y173954D01*
X136704Y173554D01*
X126861D02*
X127261Y174354D01*
X126861Y175154D01*
X127661Y174754D01*
X128461Y175154D01*
X128061Y174354D01*
X128461Y173554D01*
X127661Y173954D01*
X126861Y173554D01*
X144204Y214838D02*
Y216438D01*
X145804D01*
Y214838D01*
X144204D01*
Y250271D02*
Y251871D01*
X145804D01*
Y250271D01*
X144204D01*
X114704Y214838D02*
Y216438D01*
X116304D01*
Y214838D01*
X114704D01*
Y250271D02*
Y251871D01*
X116304D01*
Y250271D01*
X114704D01*
X86204Y214838D02*
Y216438D01*
X87804D01*
Y214838D01*
X86204D01*
Y250271D02*
Y251871D01*
X87804D01*
Y250271D01*
X86204D01*
X50104Y228954D02*
Y228554D01*
X50904D01*
Y228954D01*
X51304D01*
Y229754D01*
X50904D01*
Y230154D01*
X50104D01*
Y229754D01*
X49704D01*
Y228954D01*
X50104D01*
Y238954D02*
Y238554D01*
X50904D01*
Y238954D01*
X51304D01*
Y239754D01*
X50904D01*
Y240154D01*
X50104D01*
Y239754D01*
X49704D01*
Y238954D01*
X50104D01*
X212986Y237159D02*
Y236759D01*
X213786D01*
Y237159D01*
X214186D01*
Y237959D01*
X213786D01*
Y238359D01*
X212986D01*
Y237959D01*
X212586D01*
Y237159D01*
X212986D01*
Y227159D02*
Y226759D01*
X213786D01*
Y227159D01*
X214186D01*
Y227959D01*
X213786D01*
Y228359D01*
X212986D01*
Y227959D01*
X212586D01*
Y227159D01*
X212986D01*
X304121Y17913D02*
X304921Y18713D01*
X305721Y17913D01*
X304921Y17113D01*
X304121Y17913D01*
X18688D02*
X19488Y18713D01*
X20288Y17913D01*
X19488Y17113D01*
X18688Y17913D01*
X304121Y341732D02*
X304921Y342532D01*
X305721Y341732D01*
X304921Y340932D01*
X304121Y341732D01*
X18688Y342717D02*
X19488Y343516D01*
X20288Y342717D01*
X19488Y341916D01*
X18688Y342717D01*
D51*
X57304Y288854D02*
X56751Y289615D01*
X55857Y289325D01*
Y288384D01*
X56751Y288093D01*
X57304Y288854D01*
Y298894D02*
X56751Y299655D01*
X55857Y299364D01*
Y298424D01*
X56751Y298133D01*
X57304Y298894D01*
Y308933D02*
X56751Y309694D01*
X55857Y309403D01*
Y308463D01*
X56751Y308172D01*
X57304Y308933D01*
X242304Y286354D02*
X241751Y287115D01*
X240857Y286825D01*
Y285884D01*
X241751Y285594D01*
X242304Y286354D01*
Y296394D02*
X241751Y297155D01*
X240857Y296864D01*
Y295923D01*
X241751Y295633D01*
X242304Y296394D01*
Y306433D02*
X241751Y307194D01*
X240857Y306903D01*
Y305963D01*
X241751Y305672D01*
X242304Y306433D01*
X61196Y70394D02*
X60643Y71154D01*
X59749Y70864D01*
Y69924D01*
X60643Y69633D01*
X61196Y70394D01*
Y60354D02*
X60643Y61115D01*
X59749Y60825D01*
Y59884D01*
X60643Y59593D01*
X61196Y60354D01*
Y50315D02*
X60643Y51076D01*
X59749Y50785D01*
Y49845D01*
X60643Y49554D01*
X61196Y50315D01*
X276755Y50197D02*
X276202Y50958D01*
X275307Y50667D01*
Y49727D01*
X276202Y49436D01*
X276755Y50197D01*
Y60236D02*
X276202Y60997D01*
X275307Y60706D01*
Y59766D01*
X276202Y59475D01*
X276755Y60236D01*
Y70276D02*
X276202Y71036D01*
X275307Y70746D01*
Y69805D01*
X276202Y69515D01*
X276755Y70276D01*
M02*
