G04*
G04 #@! TF.GenerationSoftware,Altium Limited,Altium Designer,22.9.1 (49)*
G04*
G04 Layer_Color=65535*
%FSLAX25Y25*%
%MOIN*%
G70*
G04*
G04 #@! TF.SameCoordinates,E0007E1A-B842-4F06-B59B-3BF212909B56*
G04*
G04*
G04 #@! TF.FilePolarity,Positive*
G04*
G01*
G75*
%ADD10C,0.00984*%
%ADD11C,0.00591*%
%ADD12C,0.00787*%
%ADD13C,0.01000*%
D10*
X56868Y276453D02*
X56130Y276879D01*
Y276027D01*
X56868Y276453D01*
X241868Y273953D02*
X241130Y274379D01*
Y273527D01*
X241868Y273953D01*
X60760Y37913D02*
X60022Y38340D01*
Y37487D01*
X60760Y37913D01*
X75937Y130354D02*
X75199Y130780D01*
Y129928D01*
X75937Y130354D01*
X276575Y82677D02*
X275837Y83103D01*
Y82251D01*
X276575Y82677D01*
X179496Y194012D02*
X178758Y194438D01*
Y193586D01*
X179496Y194012D01*
X50996Y221795D02*
X50258Y222221D01*
Y221369D01*
X50996Y221795D01*
X213878Y245118D02*
X213140Y245544D01*
Y244692D01*
X213878Y245118D01*
D11*
X274016Y232480D02*
X273978Y233481D01*
X273866Y234475D01*
X273680Y235459D01*
X273421Y236426D01*
X273090Y237371D01*
X272690Y238288D01*
X272222Y239173D01*
X271690Y240021D01*
X271095Y240826D01*
X270442Y241585D01*
X269735Y242293D01*
X268976Y242946D01*
X268170Y243540D01*
X267323Y244073D01*
X266438Y244541D01*
X265520Y244941D01*
X264576Y245271D01*
X263609Y245531D01*
X262625Y245717D01*
X261630Y245829D01*
X260630Y245866D01*
X259630Y245829D01*
X258635Y245717D01*
X257651Y245531D01*
X256684Y245271D01*
X255739Y244941D01*
X254822Y244541D01*
X253937Y244073D01*
X253089Y243540D01*
X252284Y242946D01*
X251525Y242293D01*
X250817Y241585D01*
X250165Y240826D01*
X249570Y240021D01*
X249037Y239173D01*
X248570Y238288D01*
X248169Y237371D01*
X247839Y236426D01*
X247580Y235459D01*
X247394Y234475D01*
X247282Y233481D01*
X247244Y232480D01*
X247282Y231480D01*
X247394Y230485D01*
X247580Y229502D01*
X247839Y228535D01*
X248169Y227590D01*
X248570Y226672D01*
X249038Y225787D01*
X249570Y224940D01*
X250165Y224134D01*
X250817Y223376D01*
X251525Y222668D01*
X252284Y222015D01*
X253089Y221420D01*
X253937Y220888D01*
X254822Y220420D01*
X255740Y220020D01*
X256684Y219689D01*
X257651Y219430D01*
X258635Y219244D01*
X259630Y219132D01*
X260630Y219094D01*
X261630Y219132D01*
X262625Y219244D01*
X263609Y219430D01*
X264576Y219689D01*
X265520Y220020D01*
X266438Y220420D01*
X267323Y220888D01*
X268170Y221420D01*
X268976Y222015D01*
X269735Y222668D01*
X270442Y223376D01*
X271095Y224134D01*
X271690Y224940D01*
X272222Y225787D01*
X272690Y226672D01*
X273090Y227590D01*
X273421Y228535D01*
X273680Y229502D01*
X273866Y230485D01*
X273978Y231480D01*
X274016Y232480D01*
X259173Y116512D02*
X259149Y117510D01*
X259077Y118507D01*
X258956Y119498D01*
X258788Y120483D01*
X258573Y121458D01*
X258310Y122422D01*
X258001Y123372D01*
X257647Y124306D01*
X257248Y125222D01*
X256806Y126117D01*
X256320Y126990D01*
X255793Y127839D01*
X255226Y128661D01*
X254619Y129455D01*
X253975Y130218D01*
X253295Y130949D01*
X252580Y131647D01*
X251832Y132310D01*
X251054Y132935D01*
X250245Y133522D01*
X249410Y134070D01*
X248549Y134576D01*
X247664Y135040D01*
X246759Y135461D01*
X245833Y135838D01*
X244891Y136170D01*
X243934Y136455D01*
X242964Y136694D01*
X241984Y136886D01*
X240995Y137030D01*
X240001Y137127D01*
X239003Y137175D01*
X238004D01*
X237007Y137127D01*
X236013Y137030D01*
X235024Y136886D01*
X234044Y136694D01*
X233074Y136455D01*
X232117Y136170D01*
X231174Y135838D01*
X230249Y135461D01*
X229344Y135040D01*
X228459Y134576D01*
X227598Y134070D01*
X226762Y133522D01*
X225954Y132935D01*
X225175Y132310D01*
X224428Y131647D01*
X223713Y130949D01*
X223033Y130218D01*
X222389Y129455D01*
X221782Y128661D01*
X221215Y127839D01*
X220688Y126990D01*
X220202Y126117D01*
X219759Y125222D01*
X219361Y124306D01*
X219006Y123372D01*
X218698Y122422D01*
X218435Y121458D01*
X218220Y120483D01*
X218052Y119498D01*
X217931Y118507D01*
X217859Y117510D01*
X217835Y116512D01*
X217859Y115513D01*
X217931Y114517D01*
X218052Y113525D01*
X218220Y112541D01*
X218435Y111565D01*
X218698Y110601D01*
X219006Y109652D01*
X219361Y108718D01*
X219759Y107802D01*
X220202Y106906D01*
X220688Y106033D01*
X221215Y105185D01*
X221782Y104363D01*
X222389Y103569D01*
X223033Y102806D01*
X223713Y102074D01*
X224428Y101376D01*
X225175Y100714D01*
X225954Y100089D01*
X226762Y99501D01*
X227598Y98954D01*
X228459Y98448D01*
X229343Y97983D01*
X230249Y97562D01*
X231174Y97186D01*
X232117Y96854D01*
X233074Y96569D01*
X234044Y96329D01*
X235024Y96138D01*
X236013Y95993D01*
X237007Y95897D01*
X238004Y95849D01*
X239003Y95849D01*
X240001Y95897D01*
X240995Y95993D01*
X241984Y96137D01*
X242964Y96329D01*
X243934Y96569D01*
X244891Y96854D01*
X245833Y97186D01*
X246758Y97562D01*
X247664Y97983D01*
X248549Y98448D01*
X249410Y98954D01*
X250245Y99501D01*
X251054Y100088D01*
X251832Y100714D01*
X252580Y101376D01*
X253295Y102074D01*
X253975Y102805D01*
X254619Y103569D01*
X255226Y104363D01*
X255793Y105185D01*
X256320Y106033D01*
X256806Y106906D01*
X257248Y107802D01*
X257647Y108717D01*
X258001Y109651D01*
X258310Y110601D01*
X258573Y111565D01*
X258788Y112541D01*
X258956Y113525D01*
X259077Y114517D01*
X259149Y115513D01*
X259173Y116512D01*
X145968Y174354D02*
X145931Y175355D01*
X145819Y176349D01*
X145633Y177333D01*
X145374Y178300D01*
X145043Y179245D01*
X144643Y180162D01*
X144175Y181047D01*
X143643Y181895D01*
X143048Y182700D01*
X142395Y183459D01*
X141687Y184167D01*
X140929Y184820D01*
X140123Y185414D01*
X139276Y185947D01*
X138391Y186415D01*
X137473Y186815D01*
X136528Y187145D01*
X135561Y187405D01*
X134578Y187591D01*
X133583Y187703D01*
X132583Y187740D01*
X131582Y187703D01*
X130588Y187591D01*
X129604Y187405D01*
X128637Y187145D01*
X127692Y186815D01*
X126775Y186415D01*
X125890Y185947D01*
X125042Y185414D01*
X124237Y184820D01*
X123478Y184167D01*
X122770Y183459D01*
X122117Y182700D01*
X121523Y181895D01*
X120990Y181047D01*
X120522Y180162D01*
X120122Y179245D01*
X119791Y178300D01*
X119533Y177333D01*
X119346Y176349D01*
X119234Y175355D01*
X119197Y174354D01*
X119234Y173354D01*
X119346Y172359D01*
X119533Y171376D01*
X119792Y170409D01*
X120122Y169464D01*
X120522Y168546D01*
X120990Y167661D01*
X121523Y166814D01*
X122117Y166008D01*
X122770Y165250D01*
X123478Y164542D01*
X124237Y163889D01*
X125042Y163294D01*
X125890Y162762D01*
X126775Y162294D01*
X127692Y161894D01*
X128637Y161563D01*
X129604Y161304D01*
X130588Y161118D01*
X131582Y161006D01*
X132583Y160968D01*
X133583Y161006D01*
X134578Y161118D01*
X135561Y161304D01*
X136528Y161563D01*
X137473Y161894D01*
X138391Y162294D01*
X139276Y162762D01*
X140123Y163294D01*
X140929Y163889D01*
X141687Y164542D01*
X142395Y165250D01*
X143048Y166008D01*
X143643Y166814D01*
X144175Y167661D01*
X144643Y168546D01*
X145043Y169464D01*
X145374Y170409D01*
X145633Y171376D01*
X145819Y172359D01*
X145931Y173354D01*
X145968Y174354D01*
X48503Y193936D02*
Y190000D01*
X50471Y191968D02*
X46535D01*
X206001Y180853D02*
X209937D01*
X207969Y182821D02*
Y178885D01*
D12*
X60905Y175433D02*
X60865Y176431D01*
X60745Y177422D01*
X60545Y178401D01*
X60267Y179360D01*
X59913Y180294D01*
X59485Y181196D01*
X58986Y182061D01*
X58418Y182883D01*
X57787Y183657D01*
X57095Y184377D01*
X56347Y185039D01*
X55549Y185639D01*
X54705Y186173D01*
X53820Y186637D01*
X52902Y187029D01*
X51954Y187345D01*
X50985Y187584D01*
X49999Y187744D01*
X49003Y187825D01*
X48005D01*
X47009Y187744D01*
X46023Y187584D01*
X45054Y187345D01*
X44106Y187029D01*
X43187Y186637D01*
X42303Y186173D01*
X41459Y185639D01*
X40661Y185039D01*
X39913Y184377D01*
X39221Y183657D01*
X38590Y182883D01*
X38022Y182061D01*
X37523Y181196D01*
X37095Y180294D01*
X36741Y179360D01*
X36463Y178401D01*
X36263Y177422D01*
X36143Y176431D01*
X36102Y175433D01*
X36143Y174435D01*
X36263Y173444D01*
X36463Y172465D01*
X36741Y171506D01*
X37095Y170572D01*
X37523Y169670D01*
X38022Y168805D01*
X38590Y167983D01*
X39221Y167209D01*
X39913Y166489D01*
X40661Y165827D01*
X41459Y165227D01*
X42303Y164693D01*
X43187Y164229D01*
X44106Y163837D01*
X45054Y163521D01*
X46023Y163282D01*
X47009Y163122D01*
X48005Y163042D01*
X49003D01*
X49999Y163122D01*
X50985Y163282D01*
X51954Y163521D01*
X52902Y163837D01*
X53820Y164229D01*
X54705Y164693D01*
X55549Y165227D01*
X56347Y165827D01*
X57095Y166489D01*
X57787Y167209D01*
X58418Y167983D01*
X58986Y168805D01*
X59485Y169670D01*
X59913Y170572D01*
X60267Y171506D01*
X60545Y172465D01*
X60745Y173444D01*
X60865Y174435D01*
X60905Y175433D01*
X236906Y180854D02*
X236865Y181852D01*
X236745Y182844D01*
X236545Y183822D01*
X236267Y184782D01*
X235913Y185715D01*
X235485Y186618D01*
X234986Y187483D01*
X234418Y188304D01*
X233787Y189078D01*
X233095Y189798D01*
X232347Y190461D01*
X231549Y191061D01*
X230705Y191594D01*
X229820Y192059D01*
X228902Y192450D01*
X227954Y192766D01*
X226985Y193005D01*
X225999Y193166D01*
X225003Y193246D01*
X224005D01*
X223009Y193166D01*
X222023Y193005D01*
X221054Y192766D01*
X220106Y192450D01*
X219187Y192059D01*
X218303Y191594D01*
X217459Y191061D01*
X216661Y190461D01*
X215913Y189798D01*
X215221Y189078D01*
X214590Y188304D01*
X214022Y187483D01*
X213523Y186618D01*
X213095Y185715D01*
X212741Y184782D01*
X212463Y183822D01*
X212263Y182844D01*
X212143Y181852D01*
X212102Y180854D01*
X212143Y179856D01*
X212263Y178865D01*
X212463Y177886D01*
X212741Y176927D01*
X213095Y175993D01*
X213523Y175091D01*
X214022Y174226D01*
X214590Y173404D01*
X215221Y172631D01*
X215913Y171910D01*
X216661Y171248D01*
X217459Y170648D01*
X218303Y170114D01*
X219187Y169650D01*
X220106Y169259D01*
X221054Y168942D01*
X222023Y168703D01*
X223009Y168543D01*
X224005Y168463D01*
X225003D01*
X225999Y168543D01*
X226985Y168703D01*
X227954Y168942D01*
X228902Y169259D01*
X229820Y169650D01*
X230705Y170114D01*
X231549Y170648D01*
X232347Y171248D01*
X233095Y171910D01*
X233787Y172631D01*
X234418Y173404D01*
X234986Y174226D01*
X235485Y175091D01*
X235913Y175993D01*
X236267Y176927D01*
X236545Y177886D01*
X236745Y178865D01*
X236865Y179856D01*
X236906Y180854D01*
X174675Y187031D02*
X173748Y186469D01*
Y171240D02*
X174403Y170827D01*
X175091Y170470D01*
X182918Y170471D02*
X183780Y170931D01*
X184589Y171478D01*
X185335Y172108D01*
X186011Y172813D01*
X186609Y173585D01*
X187122Y174416D01*
X187544Y175296D01*
X187872Y176216D01*
X188101Y177166D01*
X188228Y178134D01*
X188252Y179110D01*
X188174Y180084D01*
X187993Y181043D01*
X187712Y181979D01*
X187335Y182879D01*
X186864Y183735D01*
X186306Y184536D01*
X185666Y185274D01*
X184952Y185941D01*
X184172Y186528D01*
X183335Y187030D01*
X275590Y132480D02*
X285039D01*
X275590D02*
Y157283D01*
X285039Y132480D02*
Y157283D01*
X275590D02*
X285039D01*
X45057Y278421D02*
Y319366D01*
Y278421D02*
X63167Y280390D01*
X45057Y319366D02*
X63167Y317398D01*
Y280390D02*
Y317398D01*
X230057Y275921D02*
Y316866D01*
Y275921D02*
X248167Y277890D01*
X230057Y316866D02*
X248167Y314898D01*
Y277890D02*
Y314898D01*
X253740Y243799D02*
X267323D01*
X97827Y62854D02*
X104244D01*
X196764D02*
X203181D01*
X196764Y42185D02*
Y83524D01*
X104244D02*
X196764D01*
X104244Y42185D02*
Y83524D01*
Y42185D02*
X196764D01*
X67059Y41850D02*
Y78858D01*
X48949Y80827D02*
X67059Y78858D01*
X48949Y39882D02*
X67059Y41850D01*
X48949Y39882D02*
Y80827D01*
X90827Y301354D02*
X97244D01*
X189764D02*
X196181D01*
X189764Y280685D02*
Y322024D01*
X97244D02*
X189764D01*
X97244Y280685D02*
Y322024D01*
Y280685D02*
X189764D01*
X167780Y246256D02*
X177228D01*
Y221453D02*
Y246256D01*
X167780Y221453D02*
Y246256D01*
Y221453D02*
X177228D01*
X79602Y172130D02*
Y181579D01*
X104405D01*
X79602Y172130D02*
X104405D01*
Y181579D01*
X228661Y98894D02*
X248346D01*
X98004Y118937D02*
Y141772D01*
X78004Y118937D02*
X98004D01*
X78004Y141772D02*
X98004D01*
X78004Y118937D02*
Y141772D01*
X129279Y133256D02*
X138728D01*
Y108453D02*
Y133256D01*
X129279Y108453D02*
Y133256D01*
Y108453D02*
X138728D01*
X179780Y131256D02*
X189228D01*
Y106453D02*
Y131256D01*
X179780Y106453D02*
Y131256D01*
Y106453D02*
X189228D01*
X269291Y41732D02*
Y78740D01*
Y41732D02*
X287402Y39764D01*
X269291Y78740D02*
X287402Y80709D01*
Y39764D02*
Y80709D01*
X228346Y45866D02*
X237795D01*
X228346D02*
Y70669D01*
X237795Y45866D02*
Y70669D01*
X228346D02*
X237795D01*
X173748Y171240D02*
Y186469D01*
X121264Y167465D02*
Y181047D01*
X140279Y245756D02*
X149728D01*
Y220953D02*
Y245756D01*
X140279Y220953D02*
Y245756D01*
Y220953D02*
X149728D01*
X110780Y245756D02*
X120228D01*
Y220953D02*
Y245756D01*
X110780Y220953D02*
Y245756D01*
Y220953D02*
X120228D01*
X82279Y245756D02*
X91728D01*
Y220953D02*
Y245756D01*
X82279Y220953D02*
Y245756D01*
Y220953D02*
X91728D01*
X39087Y244354D02*
X61921D01*
Y224354D02*
Y244354D01*
X39087Y224354D02*
Y244354D01*
Y224354D02*
X61921D01*
X201969Y222559D02*
X224803D01*
X201969D02*
Y242559D01*
X224803Y222559D02*
Y242559D01*
X201969D02*
X224803D01*
D13*
X272487Y138899D02*
X266489D01*
Y141898D01*
X267489Y142898D01*
X269488D01*
X270488Y141898D01*
Y138899D01*
Y140899D02*
X272487Y142898D01*
X266489Y148896D02*
X267489Y146897D01*
X269488Y144897D01*
X271487D01*
X272487Y145897D01*
Y147896D01*
X271487Y148896D01*
X270488D01*
X269488Y147896D01*
Y144897D01*
X69685Y303377D02*
X68685Y304377D01*
X66686D01*
X65686Y303377D01*
Y302378D01*
X66686Y301378D01*
X68685D01*
X69685Y300378D01*
Y299379D01*
X68685Y298379D01*
X66686D01*
X65686Y299379D01*
X71684Y298379D02*
X73684D01*
X72684D01*
Y304377D01*
X71684Y303377D01*
X217246Y312251D02*
X221244D01*
X219245D01*
Y306253D01*
X227242D02*
X223244D01*
X227242Y310252D01*
Y311251D01*
X226243Y312251D01*
X224243D01*
X223244Y311251D01*
X248757Y67172D02*
X252756D01*
X250757D01*
Y61174D01*
X254755D02*
X256755D01*
X255755D01*
Y67172D01*
X254755Y66173D01*
X58843Y87826D02*
X57843Y88826D01*
X55844D01*
X54844Y87826D01*
Y86826D01*
X55844Y85827D01*
X57843D01*
X58843Y84827D01*
Y83827D01*
X57843Y82828D01*
X55844D01*
X54844Y83827D01*
X64841Y82828D02*
X60842D01*
X64841Y86826D01*
Y87826D01*
X63841Y88826D01*
X61842D01*
X60842Y87826D01*
X86340Y185190D02*
Y191188D01*
X89339D01*
X90339Y190188D01*
Y188189D01*
X89339Y187189D01*
X86340D01*
X88340D02*
X90339Y185190D01*
X92338Y186190D02*
X93338Y185190D01*
X95337D01*
X96337Y186190D01*
Y190188D01*
X95337Y191188D01*
X93338D01*
X92338Y190188D01*
Y189189D01*
X93338Y188189D01*
X96337D01*
X169017Y256056D02*
Y262054D01*
X172016D01*
X173016Y261054D01*
Y259055D01*
X172016Y258055D01*
X169017D01*
X171017D02*
X173016Y256056D01*
X175015Y261054D02*
X176015Y262054D01*
X178015D01*
X179014Y261054D01*
Y260055D01*
X178015Y259055D01*
X179014Y258055D01*
Y257056D01*
X178015Y256056D01*
X176015D01*
X175015Y257056D01*
Y258055D01*
X176015Y259055D01*
X175015Y260055D01*
Y261054D01*
X176015Y259055D02*
X178015D01*
X225637Y55183D02*
X219639D01*
Y58182D01*
X220638Y59181D01*
X222638D01*
X223638Y58182D01*
Y55183D01*
Y57182D02*
X225637Y59181D01*
X219639Y61181D02*
Y65180D01*
X220638D01*
X224637Y61181D01*
X225637D01*
X140804Y257254D02*
Y263252D01*
X143803D01*
X144803Y262253D01*
Y260253D01*
X143803Y259254D01*
X140804D01*
X142803D02*
X144803Y257254D01*
X150801Y263252D02*
X146802D01*
Y260253D01*
X148801Y261253D01*
X149801D01*
X150801Y260253D01*
Y258254D01*
X149801Y257254D01*
X147802D01*
X146802Y258254D01*
X177015Y120199D02*
X171017D01*
Y123197D01*
X172016Y124197D01*
X174016D01*
X175015Y123197D01*
Y120199D01*
Y122198D02*
X177015Y124197D01*
Y129196D02*
X171017D01*
X174016Y126197D01*
Y130195D01*
X111304Y257254D02*
Y263252D01*
X114303D01*
X115303Y262253D01*
Y260253D01*
X114303Y259254D01*
X111304D01*
X113303D02*
X115303Y257254D01*
X117302Y262253D02*
X118302Y263252D01*
X120301D01*
X121301Y262253D01*
Y261253D01*
X120301Y260253D01*
X119301D01*
X120301D01*
X121301Y259254D01*
Y258254D01*
X120301Y257254D01*
X118302D01*
X117302Y258254D01*
X125834Y120199D02*
X119836D01*
Y123197D01*
X120835Y124197D01*
X122835D01*
X123834Y123197D01*
Y120199D01*
Y122198D02*
X125834Y124197D01*
Y130195D02*
Y126197D01*
X121835Y130195D01*
X120835D01*
X119836Y129196D01*
Y127196D01*
X120835Y126197D01*
X82804Y257254D02*
Y263252D01*
X85803D01*
X86803Y262253D01*
Y260253D01*
X85803Y259254D01*
X82804D01*
X84803D02*
X86803Y257254D01*
X88802D02*
X90801D01*
X89802D01*
Y263252D01*
X88802Y262253D01*
X196004Y170355D02*
Y174354D01*
X195004Y175353D01*
X193005D01*
X192005Y174354D01*
Y170355D01*
X193005Y169355D01*
X195004D01*
X194005Y171355D02*
X196004Y169355D01*
X195004D02*
X196004Y170355D01*
X198003Y169355D02*
X200003D01*
X199003D01*
Y175353D01*
X198003Y174354D01*
X134522Y299363D02*
Y305361D01*
X137521D01*
X138521Y304362D01*
Y302362D01*
X137521Y301362D01*
X134522D01*
X140520Y299363D02*
Y305361D01*
X143519D01*
X144519Y304362D01*
Y302362D01*
X143519Y301362D01*
X140520D01*
X142520D02*
X144519Y299363D01*
X150517D02*
X146518D01*
X150517Y303362D01*
Y304362D01*
X149517Y305361D01*
X147518D01*
X146518Y304362D01*
X90404Y87354D02*
Y93352D01*
X93403D01*
X94403Y92353D01*
Y90353D01*
X93403Y89354D01*
X90404D01*
X96402Y87354D02*
Y93352D01*
X99401D01*
X100401Y92353D01*
Y90353D01*
X99401Y89354D01*
X96402D01*
X98401D02*
X100401Y87354D01*
X102400D02*
X104399D01*
X103400D01*
Y93352D01*
X102400Y92353D01*
X202504Y249054D02*
Y255052D01*
X205503D01*
X206503Y254053D01*
Y252053D01*
X205503Y251054D01*
X202504D01*
X208502Y254053D02*
X209502Y255052D01*
X211501D01*
X212501Y254053D01*
Y253053D01*
X211501Y252053D01*
X210501D01*
X211501D01*
X212501Y251054D01*
Y250054D01*
X211501Y249054D01*
X209502D01*
X208502Y250054D01*
X39604Y247854D02*
Y253852D01*
X42603D01*
X43603Y252853D01*
Y250853D01*
X42603Y249854D01*
X39604D01*
X49601Y247854D02*
X45602D01*
X49601Y251853D01*
Y252853D01*
X48601Y253852D01*
X46602D01*
X45602Y252853D01*
X79466Y110387D02*
Y116385D01*
X82465D01*
X83465Y115385D01*
Y113386D01*
X82465Y112386D01*
X79466D01*
X85464Y110387D02*
X87463D01*
X86464D01*
Y116385D01*
X85464Y115385D01*
X247819Y253181D02*
X246819Y254180D01*
X244820D01*
X243821Y253181D01*
Y249182D01*
X244820Y248182D01*
X246819D01*
X247819Y249182D01*
X253817Y254180D02*
X249819D01*
Y251181D01*
X251818Y252181D01*
X252818D01*
X253817Y251181D01*
Y249182D01*
X252818Y248182D01*
X250818D01*
X249819Y249182D01*
X129709Y154755D02*
X128709Y155755D01*
X126710D01*
X125710Y154755D01*
Y150757D01*
X126710Y149757D01*
X128709D01*
X129709Y150757D01*
X134707Y149757D02*
Y155755D01*
X131708Y152756D01*
X135707D01*
X224197Y162629D02*
X223198Y163629D01*
X221198D01*
X220198Y162629D01*
Y158631D01*
X221198Y157631D01*
X223198D01*
X224197Y158631D01*
X226197Y162629D02*
X227196Y163629D01*
X229196D01*
X230195Y162629D01*
Y161630D01*
X229196Y160630D01*
X228196D01*
X229196D01*
X230195Y159630D01*
Y158631D01*
X229196Y157631D01*
X227196D01*
X226197Y158631D01*
X47032Y201999D02*
X46032Y202999D01*
X44033D01*
X43033Y201999D01*
Y198001D01*
X44033Y197001D01*
X46032D01*
X47032Y198001D01*
X53030Y197001D02*
X49031D01*
X53030Y201000D01*
Y201999D01*
X52030Y202999D01*
X50031D01*
X49031Y201999D01*
X248819Y142944D02*
X247819Y143944D01*
X245820D01*
X244820Y142944D01*
Y138945D01*
X245820Y137946D01*
X247819D01*
X248819Y138945D01*
X250818Y137946D02*
X252818D01*
X251818D01*
Y143944D01*
X250818Y142944D01*
M02*
