G04*
G04 #@! TF.GenerationSoftware,Altium Limited,Altium Designer,22.9.1 (49)*
G04*
G04 Layer_Color=32768*
%FSLAX25Y25*%
%MOIN*%
G70*
G04*
G04 #@! TF.SameCoordinates,E0007E1A-B842-4F06-B59B-3BF212909B56*
G04*
G04*
G04 #@! TF.FilePolarity,Positive*
G04*
G01*
G75*
%ADD12C,0.00787*%
%ADD48C,0.00394*%
%ADD49C,0.00197*%
D12*
X260630Y246260D02*
X259624Y246223D01*
X258624Y246113D01*
X257634Y245930D01*
X256660Y245676D01*
X255707Y245351D01*
X254781Y244957D01*
X253886Y244497D01*
X253027Y243972D01*
X252208Y243387D01*
X251435Y242743D01*
X250710Y242044D01*
X250038Y241295D01*
X249423Y240498D01*
X248868Y239659D01*
X248375Y238781D01*
X247948Y237870D01*
X247588Y236929D01*
X247299Y235966D01*
X247080Y234983D01*
X246933Y233987D01*
X246860Y232984D01*
Y231977D01*
X246933Y230973D01*
X247080Y229977D01*
X247299Y228995D01*
X247588Y228031D01*
X247948Y227091D01*
X248375Y226180D01*
X248868Y225302D01*
X249423Y224463D01*
X250038Y223666D01*
X250710Y222916D01*
X251435Y222218D01*
X252208Y221574D01*
X253027Y220988D01*
X253886Y220464D01*
X254781Y220004D01*
X255708Y219610D01*
X256660Y219285D01*
X257634Y219030D01*
X258624Y218848D01*
X259624Y218738D01*
X260630Y218701D01*
X261636Y218738D01*
X262636Y218848D01*
X263626Y219030D01*
X264600Y219285D01*
X265552Y219610D01*
X266479Y220004D01*
X267374Y220464D01*
X268233Y220988D01*
X269052Y221574D01*
X269825Y222218D01*
X270550Y222916D01*
X271221Y223666D01*
X271837Y224463D01*
X272392Y225302D01*
X272885Y226180D01*
X273312Y227091D01*
X273671Y228031D01*
X273961Y228995D01*
X274180Y229977D01*
X274327Y230973D01*
X274400Y231977D01*
X274400Y232983D01*
X274327Y233987D01*
X274180Y234983D01*
X273961Y235965D01*
X273671Y236929D01*
X273312Y237870D01*
X272885Y238781D01*
X272392Y239659D01*
X271837Y240498D01*
X271222Y241295D01*
X270550Y242044D01*
X269825Y242743D01*
X269052Y243387D01*
X268233Y243972D01*
X267374Y244497D01*
X266479Y244957D01*
X265552Y245351D01*
X264600Y245676D01*
X263626Y245930D01*
X262636Y246113D01*
X261636Y246223D01*
X260630Y246260D01*
X238504Y95449D02*
X239506Y95473D01*
X240506Y95544D01*
X241501Y95663D01*
X242490Y95829D01*
X243470Y96043D01*
X244438Y96302D01*
X245393Y96607D01*
X246332Y96958D01*
X247254Y97352D01*
X248155Y97790D01*
X249035Y98271D01*
X249891Y98792D01*
X250722Y99354D01*
X251524Y99955D01*
X252297Y100593D01*
X253039Y101268D01*
X253748Y101977D01*
X254422Y102718D01*
X255061Y103491D01*
X255661Y104294D01*
X256223Y105124D01*
X256745Y105980D01*
X257225Y106860D01*
X257663Y107762D01*
X258058Y108683D01*
X258408Y109623D01*
X258714Y110578D01*
X258973Y111546D01*
X259186Y112525D01*
X259352Y113514D01*
X259472Y114509D01*
X259543Y115509D01*
X259567Y116512D01*
X259543Y117514D01*
X259472Y118514D01*
X259353Y119509D01*
X259186Y120498D01*
X258973Y121477D01*
X258714Y122446D01*
X258408Y123401D01*
X258058Y124340D01*
X257664Y125262D01*
X257225Y126163D01*
X256745Y127043D01*
X256223Y127899D01*
X255661Y128729D01*
X255061Y129532D01*
X254422Y130305D01*
X253748Y131047D01*
X253039Y131756D01*
X252297Y132430D01*
X251524Y133068D01*
X250722Y133669D01*
X249892Y134231D01*
X249036Y134753D01*
X248156Y135233D01*
X247254Y135671D01*
X246332Y136066D01*
X245393Y136416D01*
X244438Y136722D01*
X243470Y136981D01*
X242490Y137194D01*
X241502Y137360D01*
X240506Y137479D01*
X239506Y137551D01*
X238504Y137575D01*
X238504D02*
X237502Y137551D01*
X236502Y137479D01*
X235506Y137360D01*
X234518Y137194D01*
X233538Y136981D01*
X232570Y136722D01*
X231615Y136416D01*
X230676Y136066D01*
X229754Y135671D01*
X228852Y135233D01*
X227972Y134753D01*
X227116Y134231D01*
X226286Y133669D01*
X225484Y133068D01*
X224711Y132430D01*
X223969Y131756D01*
X223260Y131047D01*
X222586Y130305D01*
X221947Y129532D01*
X221346Y128729D01*
X220785Y127899D01*
X220263Y127043D01*
X219782Y126163D01*
X219344Y125262D01*
X218950Y124340D01*
X218599Y123401D01*
X218294Y122446D01*
X218035Y121478D01*
X217822Y120498D01*
X217655Y119509D01*
X217536Y118514D01*
X217465Y117514D01*
X217441Y116512D01*
X217465Y115509D01*
X217536Y114510D01*
X217655Y113514D01*
X217822Y112526D01*
X218035Y111546D01*
X218294Y110578D01*
X218599Y109623D01*
X218950Y108683D01*
X219344Y107762D01*
X219782Y106860D01*
X220263Y105980D01*
X220785Y105124D01*
X221347Y104294D01*
X221947Y103491D01*
X222586Y102718D01*
X223260Y101977D01*
X223969Y101268D01*
X224711Y100593D01*
X225484Y99955D01*
X226286Y99354D01*
X227116Y98792D01*
X227973Y98271D01*
X228852Y97790D01*
X229754Y97352D01*
X230676Y96958D01*
X231615Y96607D01*
X232570Y96302D01*
X233538Y96043D01*
X234518Y95829D01*
X235507Y95663D01*
X236502Y95544D01*
X237502Y95473D01*
X238504Y95449D01*
X118803Y174354D02*
X118840Y173348D01*
X118950Y172348D01*
X119133Y171358D01*
X119387Y170385D01*
X119712Y169432D01*
X120106Y168506D01*
X120566Y167610D01*
X121091Y166751D01*
X121676Y165933D01*
X122320Y165159D01*
X123019Y164434D01*
X123768Y163763D01*
X124565Y163148D01*
X125404Y162592D01*
X126282Y162100D01*
X127193Y161672D01*
X128133Y161313D01*
X129097Y161023D01*
X130080Y160804D01*
X131076Y160658D01*
X132079Y160584D01*
X133086D01*
X134090Y160658D01*
X135085Y160804D01*
X136068Y161023D01*
X137032Y161313D01*
X137972Y161672D01*
X138883Y162100D01*
X139761Y162592D01*
X140600Y163148D01*
X141397Y163763D01*
X142147Y164434D01*
X142845Y165159D01*
X143489Y165933D01*
X144075Y166751D01*
X144599Y167610D01*
X145059Y168506D01*
X145453Y169432D01*
X145778Y170384D01*
X146033Y171358D01*
X146215Y172348D01*
X146326Y173348D01*
X146362Y174354D01*
Y174354D02*
X146326Y175360D01*
X146215Y176361D01*
X146033Y177350D01*
X145778Y178324D01*
X145453Y179277D01*
X145059Y180203D01*
X144599Y181098D01*
X144075Y181957D01*
X143489Y182776D01*
X142845Y183550D01*
X142147Y184274D01*
X141397Y184946D01*
X140600Y185561D01*
X139761Y186116D01*
X138883Y186609D01*
X137972Y187036D01*
X137032Y187396D01*
X136068Y187686D01*
X135085Y187905D01*
X134090Y188051D01*
X133086Y188125D01*
X132079D01*
X131076Y188051D01*
X130080Y187905D01*
X129097Y187686D01*
X128133Y187396D01*
X127193Y187036D01*
X126282Y186609D01*
X125404Y186116D01*
X124565Y185561D01*
X123768Y184946D01*
X123019Y184274D01*
X122320Y183550D01*
X121676Y182776D01*
X121091Y181957D01*
X120566Y181098D01*
X120106Y180203D01*
X119712Y179277D01*
X119387Y178324D01*
X119133Y177350D01*
X118950Y176361D01*
X118840Y175360D01*
X118803Y174354D01*
X44663Y278028D02*
X63561D01*
X44663D02*
Y319760D01*
X63561D01*
Y278028D02*
Y319760D01*
X229663Y275528D02*
X248561D01*
X229663D02*
Y317260D01*
X248561D01*
Y275528D02*
Y317260D01*
X211252Y41791D02*
Y83917D01*
X89756D02*
X211252D01*
X89756Y41791D02*
Y83917D01*
Y41791D02*
X211252D01*
X67453Y39488D02*
Y81221D01*
X48555D02*
X67453D01*
X48555Y39488D02*
Y81221D01*
Y39488D02*
X67453D01*
X204252Y280291D02*
Y322417D01*
X82756D02*
X204252D01*
X82756Y280291D02*
Y322417D01*
Y280291D02*
X204252D01*
X268898Y39370D02*
Y81102D01*
Y39370D02*
X287795D01*
Y81102D01*
X268898D02*
X287795D01*
D48*
X280315Y142913D02*
Y146850D01*
X278346Y144882D02*
X282283D01*
X170535Y233854D02*
X174472D01*
X172504Y231886D02*
Y235823D01*
X92004Y174886D02*
Y178823D01*
X90035Y176854D02*
X93972D01*
X46535Y175433D02*
X50472D01*
X48504Y173465D02*
Y177402D01*
X224504Y178886D02*
Y182823D01*
X222535Y180854D02*
X226472D01*
X86035Y130354D02*
X89972D01*
X88004Y128386D02*
Y132323D01*
X132035Y120854D02*
X135972D01*
X134004Y118886D02*
Y122823D01*
X182535Y118854D02*
X186472D01*
X184504Y116886D02*
Y120823D01*
X231102Y58268D02*
X235039D01*
X233071Y56299D02*
Y60236D01*
X179004Y176886D02*
Y180823D01*
X177035Y178854D02*
X180972D01*
X143035Y233354D02*
X146972D01*
X145004Y231386D02*
Y235323D01*
X113535Y233354D02*
X117472D01*
X115504Y231386D02*
Y235323D01*
X85035Y233354D02*
X88972D01*
X87004Y231386D02*
Y235323D01*
X50504Y232386D02*
Y236323D01*
X48535Y234354D02*
X52472D01*
X213386Y230591D02*
Y234528D01*
X211417Y232559D02*
X215354D01*
D49*
X275197Y124114D02*
X285433D01*
Y165650D01*
X275197Y124114D02*
Y165650D01*
X285433D01*
X167386Y254622D02*
X177622D01*
X167386Y213087D02*
Y254622D01*
X177622Y213087D02*
Y254622D01*
X167386Y213087D02*
X177622D01*
X71236Y171736D02*
Y181972D01*
Y171736D02*
X112772D01*
X71236Y181972D02*
X112772D01*
Y171736D02*
Y181972D01*
X35709Y188228D02*
X61299D01*
Y162638D02*
Y188228D01*
X35709Y162638D02*
Y188228D01*
Y162638D02*
X61299D01*
X211709Y168059D02*
Y193650D01*
X237299D01*
X211709Y168059D02*
X237299D01*
Y193650D01*
X77611Y142165D02*
X98398D01*
X77611Y118543D02*
X98398D01*
X77611D02*
Y142165D01*
X98398Y118543D02*
Y142165D01*
X128886Y141622D02*
X139122D01*
X128886Y100087D02*
Y141622D01*
X139122Y100087D02*
Y141622D01*
X128886Y100087D02*
X139122D01*
X179386Y139622D02*
X189622D01*
X179386Y98087D02*
Y139622D01*
X189622Y98087D02*
Y139622D01*
X179386Y98087D02*
X189622D01*
X227953Y37500D02*
X238189D01*
Y79035D01*
X227953Y37500D02*
Y79035D01*
X238189D01*
X173354Y165469D02*
X188650D01*
Y192240D01*
X173354D02*
X188650D01*
X173354Y165469D02*
Y192240D01*
X139886Y254122D02*
X150122D01*
X139886Y212587D02*
Y254122D01*
X150122Y212587D02*
Y254122D01*
X139886Y212587D02*
X150122D01*
X110386Y254122D02*
X120622D01*
X110386Y212587D02*
Y254122D01*
X120622Y212587D02*
Y254122D01*
X110386Y212587D02*
X120622D01*
X81886Y254122D02*
X92122D01*
X81886Y212587D02*
Y254122D01*
X92122Y212587D02*
Y254122D01*
X81886Y212587D02*
X92122D01*
X38693Y223961D02*
Y244749D01*
X62315Y223961D02*
Y244749D01*
X38693Y223961D02*
X62315D01*
X38693Y244749D02*
X62315D01*
X225197Y222165D02*
Y242952D01*
X201575Y222165D02*
Y242952D01*
X225197D01*
X201575Y222165D02*
X225197D01*
M02*
